<?xml version="1.0" encoding="UTF-8" standalone="no"?>
<svg
   xmlns:dc="http://purl.org/dc/elements/1.1/"
   xmlns:cc="http://creativecommons.org/ns#"
   xmlns:rdf="http://www.w3.org/1999/02/22-rdf-syntax-ns#"
   xmlns:svg="http://www.w3.org/2000/svg"
   xmlns="http://www.w3.org/2000/svg"
   viewBox="0 0 264 197.33333"
   height="197.33333"
   width="264"
   xml:space="preserve"
   id="svg2"
   version="1.1"><metadata
     id="metadata8"><rdf:RDF><cc:Work
         rdf:about=""><dc:format>image/svg+xml</dc:format><dc:type
           rdf:resource="http://purl.org/dc/dcmitype/StillImage" /></cc:Work></rdf:RDF></metadata><defs
     id="defs6"><clipPath
       id="clipPath20"
       clipPathUnits="userSpaceOnUse"><path
         id="path18"
         d="M 0,8.48047 H 1980 V 1478.4805 H 0 Z" /></clipPath></defs><g
     transform="matrix(1.3333333,0,0,-1.3333333,0,197.33333)"
     id="g10"><g
       transform="scale(0.1)"
       id="g12"><g
         id="g14"><g
           clip-path="url(#clipPath20)"
           id="g16"><path
             id="path22"
             style="fill:#000000;fill-opacity:1;fill-rule:nonzero;stroke:none"
             d="m 1284.41,1437.03 c -4.92,15.12 -15.66,27.7 -29.84,34.92 -14.18,7.23 -30.62,8.52 -45.78,3.6 l -251.02,-81.57 c -31.481,-10.27 -48.75,-44.1 -38.508,-75.62 L 931.801,1279.73 293.32,810.738 41.4492,728.91 C 26.3281,723.98 13.75,713.281 6.51953,699.102 -0.699219,684.922 -1.98828,668.441 2.92969,653.32 L 155.98,182.422 c 8.239,-25.352 31.75,-41.481 57.032,-41.481 6.168,0 12.418,0.938 18.547,2.969 l 251.839,81.789 129.372,-0.66 C 638.789,102.34 747.891,10 878.199,10 1007.5,10 1115.9,100.98 1142.97,222.27 l 132.69,-0.711 12.54,-38.629 c 4.92,-15.16 15.63,-27.7 29.81,-34.918 8.51,-4.34 17.85,-6.563 27.26,-6.563 6.21,0 12.5,0.973 18.52,2.961 l 251.01,81.57 c 31.53,10.231 48.79,44.059 38.52,75.579 z M 251.559,276.559 135.621,633.32 282.539,681.059 398.441,324.301 Z M 878.199,130 c -63.32,0 -117.578,39.102 -140.109,94.379 l 279.64,-1.488 C 994.84,168.398 940.941,130 878.199,130 Z m -360.5,215.551 -63.09,194.219 -63.129,194.21 579.379,425.55 177.661,-546.8 88.04,-270.968 z m 866.091,-68.481 -7.38,22.66 c 0,0.04 0,0.079 -0.04,0.149 l -158.52,487.851 -165.94,510.67 136.92,44.49 331.83,-1021.331 z" /><path
             id="path24"
             style="fill:#000000;fill-opacity:1;fill-rule:nonzero;stroke:none"
             d="m 1486.45,1145.35 c 8.75,-4.45 18.04,-6.56 27.18,-6.56 21.88,0 42.93,11.99 53.52,32.77 l 107.69,211.29 c 15.04,29.53 3.32,65.67 -26.21,80.71 -29.49,15.03 -65.66,3.32 -80.7,-26.22 l -107.7,-211.28 c -15.03,-29.54 -3.32,-65.67 26.22,-80.71 z" /><path
             id="path26"
             style="fill:#000000;fill-opacity:1;fill-rule:nonzero;stroke:none"
             d="m 1937.42,574.809 -211.33,107.613 c -29.53,15.039 -65.66,3.316 -80.7,-26.211 -15.04,-29.531 -3.28,-65.66 26.21,-80.699 l 211.33,-107.621 c 8.71,-4.45 18.01,-6.563 27.19,-6.563 21.83,0 42.89,11.992 53.51,32.774 15.04,29.527 3.28,65.668 -26.21,80.707 z" /><path
             id="path28"
             style="fill:#000000;fill-opacity:1;fill-rule:nonzero;stroke:none"
             d="m 1633.95,922.852 c 8.24,-25.352 31.75,-41.442 57.03,-41.442 6.17,0 12.38,0.93 18.55,2.93 l 225.51,73.281 c 31.52,10.231 48.75,44.099 38.51,75.619 -10.23,31.53 -44.1,48.71 -75.62,38.52 l -225.47,-73.28 c -31.52,-10.242 -48.79,-44.101 -38.51,-75.628 z" /></g></g></g></g></svg>