<?xml version="1.0" encoding="UTF-8" standalone="no"?>
<svg
   xmlns:dc="http://purl.org/dc/elements/1.1/"
   xmlns:cc="http://creativecommons.org/ns#"
   xmlns:rdf="http://www.w3.org/1999/02/22-rdf-syntax-ns#"
   xmlns:svg="http://www.w3.org/2000/svg"
   xmlns="http://www.w3.org/2000/svg"
   viewBox="0 0 224 214.66667"
   height="214.66667"
   width="224"
   xml:space="preserve"
   id="svg2"
   version="1.1"><metadata
     id="metadata8"><rdf:RDF><cc:Work
         rdf:about=""><dc:format>image/svg+xml</dc:format><dc:type
           rdf:resource="http://purl.org/dc/dcmitype/StillImage" /></cc:Work></rdf:RDF></metadata><defs
     id="defs6"><clipPath
       id="clipPath20"
       clipPathUnits="userSpaceOnUse"><path
         id="path18"
         d="M 0,8.19922 H 1680 V 1608.1992 H 0 Z" /></clipPath></defs><g
     transform="matrix(1.3333333,0,0,-1.3333333,0,214.66667)"
     id="g10"><g
       transform="scale(0.1)"
       id="g12"><g
         id="g14"><g
           clip-path="url(#clipPath20)"
           id="g16"><path
             id="path22"
             style="fill:#000000;fill-opacity:1;fill-rule:nonzero;stroke:none"
             d="m 1657.34,850.809 -165.46,171.021 33.35,235.66 c 4.54,32.03 -17.14,61.92 -49.06,67.5 l -234.37,41.1 -111.53,210.23 c -15.15,28.6 -50.27,39.96 -79.33,25.78 L 837.109,1497.57 623.32,1602.1 c -29.101,14.18 -64.179,2.78 -79.34,-25.82 l -111.558,-210.19 -234.371,-41.1 c -31.879,-5.58 -53.602,-35.47 -49.031,-67.5 L 182.34,1021.83 16.8789,850.809 c -22.49999,-23.239 -22.49999,-60.149 0,-83.43 L 182.34,596.359 148.98,360.738 c -4.531,-32.066 17.192,-61.918 49.071,-67.539 L 432.422,252.102 543.98,41.9102 C 559.141,13.3086 594.219,1.91016 623.32,16.1289 L 837.109,120.621 1050.94,16.1289 c 8.47,-4.1797 17.42,-6.14062 26.29,-6.14062 21.52,0 42.3,11.64062 53.04,31.92192 l 111.53,210.1918 234.41,41.097 c 31.88,5.621 53.56,35.473 49.02,67.539 l -33.35,235.621 165.5,171.02 c 22.5,23.281 22.5,60.191 -0.04,83.43 z m -272.07,-192.11 c -12.89,-13.277 -18.86,-31.789 -16.29,-50.109 l 29.34,-207.231 -206.13,-36.129 c -18.21,-3.21 -33.95,-14.652 -42.62,-30.98 l -98.09,-184.84 -188,91.871 c -8.32,4.059 -17.351,6.098 -26.371,6.098 -9.019,0 -18.05,-2.039 -26.328,-6.098 L 622.77,149.41 524.691,334.25 c -8.671,16.328 -24.421,27.77 -42.621,30.98 L 275.941,401.359 305.27,608.59 c 2.582,18.32 -3.43,36.832 -16.29,50.109 l -145.5,150.391 145.5,150.398 c 12.86,13.282 18.872,31.793 16.29,50.112 l -29.329,207.19 206.09,36.13 c 18.239,3.21 33.989,14.65 42.66,30.98 l 98.079,184.88 187.968,-91.91 c 16.641,-8.13 36.102,-8.13 52.742,0 l 188,91.91 98.05,-184.88 c 8.67,-16.33 24.42,-27.77 42.66,-30.98 l 206.09,-36.13 -29.3,-207.19 c -2.61,-18.319 3.4,-36.83 16.29,-50.112 L 1530.74,809.09 Z" /><path
             id="path24"
             style="fill:#000000;fill-opacity:1;fill-rule:nonzero;stroke:none"
             d="m 646.559,854.41 c 80.121,0 145.281,65.149 145.281,145.231 0,80.159 -65.16,145.309 -145.281,145.309 -80.11,0 -145.309,-65.15 -145.309,-145.309 0,-80.082 65.199,-145.231 145.309,-145.231 z m 0,194.57 c 27.152,0 49.261,-22.15 49.261,-49.339 0,-27.153 -22.109,-49.262 -49.261,-49.262 -27.18,0 -49.289,22.109 -49.289,49.262 0,27.189 22.109,49.339 49.289,49.339 z" /><path
             id="path26"
             style="fill:#000000;fill-opacity:1;fill-rule:nonzero;stroke:none"
             d="m 1126.95,1098.9 c -18.75,18.75 -49.18,18.75 -67.89,0 L 547.301,587.18 c -18.75,-18.75 -18.75,-49.141 0,-67.891 9.379,-9.367 21.679,-14.059 33.949,-14.059 12.301,0 24.57,4.692 33.949,14.059 l 511.751,511.761 c 18.71,18.71 18.71,49.1 0,67.85 z" /><path
             id="path28"
             style="fill:#000000;fill-opacity:1;fill-rule:nonzero;stroke:none"
             d="m 1027.7,763.82 c -80.122,0 -145.278,-65.191 -145.278,-145.269 0,-80.121 65.156,-145.313 145.278,-145.313 80.11,0 145.31,65.192 145.31,145.313 0,80.078 -65.2,145.269 -145.31,145.269 z m 0,-194.609 c -27.19,0 -49.302,22.148 -49.302,49.34 0,27.148 22.112,49.258 49.302,49.258 27.14,0 49.29,-22.11 49.29,-49.258 0,-27.192 -22.11,-49.34 -49.29,-49.34 z" /></g></g></g></g></svg>