<?xml version="1.0" encoding="UTF-8" standalone="no"?>
<svg
   xmlns:dc="http://purl.org/dc/elements/1.1/"
   xmlns:cc="http://creativecommons.org/ns#"
   xmlns:rdf="http://www.w3.org/1999/02/22-rdf-syntax-ns#"
   xmlns:svg="http://www.w3.org/2000/svg"
   xmlns="http://www.w3.org/2000/svg"
   viewBox="0 0 226.66667 161.33333"
   height="161.33333"
   width="226.66667"
   xml:space="preserve"
   id="svg2"
   version="1.1"><metadata
     id="metadata8"><rdf:RDF><cc:Work
         rdf:about=""><dc:format>image/svg+xml</dc:format><dc:type
           rdf:resource="http://purl.org/dc/dcmitype/StillImage" /></cc:Work></rdf:RDF></metadata><defs
     id="defs6"><clipPath
       id="clipPath20"
       clipPathUnits="userSpaceOnUse"><path
         id="path18"
         d="M 0,2.83984 H 1700 V 1202.8398 H 0 Z" /></clipPath></defs><g
     transform="matrix(1.3333333,0,0,-1.3333333,0,161.33333)"
     id="g10"><g
       transform="scale(0.1)"
       id="g12"><g
         id="g14"><g
           clip-path="url(#clipPath20)"
           id="g16"><path
             id="path22"
             style="fill:#000000;fill-opacity:1;fill-rule:nonzero;stroke:none"
             d="M 1638.32,1202.84 H 60 c -33.1211,0 -60,-26.87 -60,-60 V 69.9883 C 0,36.8594 26.8789,9.98828 60,9.98828 h 1578.32 c 33.16,0 60,26.87112 60,60.00002 V 1142.84 c 0,33.13 -26.84,60 -60,60 z M 120,701.16 c 195.898,27.031 350.621,184.488 373.441,381.68 h 711.519 c 22.81,-197.192 177.5,-354.649 373.4,-381.719 V 502.18 C 1385.62,475.539 1232.77,322.719 1206.17,129.988 H 492.23 C 465.621,322.719 312.73,475.609 120,502.219 Z m 1458.32,121.481 c -129.57,25 -231.21,129.257 -252.3,260.199 h 252.3 z M 372.379,1082.84 C 351.289,951.898 249.609,847.68 120,822.68 v 260.16 z M 120,380.648 C 246.449,356.281 346.328,256.43 370.699,129.988 H 120 Z m 1207.7,-250.66 c 24.37,126.442 124.21,226.25 250.62,250.621 V 129.988 Z" /><path
             id="path24"
             style="fill:#000000;fill-opacity:1;fill-rule:nonzero;stroke:none"
             d="m 849.18,318.27 c 235.9,0 420.7,126.558 420.7,288.16 0,161.57 -184.8,288.129 -420.7,288.129 -235.899,0 -420.7,-126.559 -420.7,-288.129 0,-161.602 184.801,-288.16 420.7,-288.16 z m 0,456.289 c 160.16,0 300.7,-78.559 300.7,-168.129 0,-89.571 -140.54,-168.16 -300.7,-168.16 -160.2,0 -300.7,78.55 -300.7,168.16 0,89.57 140.5,168.129 300.7,168.129 z" /></g></g></g></g></svg>