<?xml version="1.0" encoding="UTF-8" standalone="no"?>
<svg
   xmlns:dc="http://purl.org/dc/elements/1.1/"
   xmlns:cc="http://creativecommons.org/ns#"
   xmlns:rdf="http://www.w3.org/1999/02/22-rdf-syntax-ns#"
   xmlns:svg="http://www.w3.org/2000/svg"
   xmlns="http://www.w3.org/2000/svg"
   viewBox="0 0 305.33334 228"
   height="228"
   width="305.33334"
   xml:space="preserve"
   id="svg2"
   version="1.1"><metadata
     id="metadata8"><rdf:RDF><cc:Work
         rdf:about=""><dc:format>image/svg+xml</dc:format><dc:type
           rdf:resource="http://purl.org/dc/dcmitype/StillImage" /></cc:Work></rdf:RDF></metadata><defs
     id="defs6"><clipPath
       id="clipPath20"
       clipPathUnits="userSpaceOnUse"><path
         id="path18"
         d="M 0,2 H 2290 V 1702 H 0 Z" /></clipPath></defs><g
     transform="matrix(1.3333333,0,0,-1.3333333,0,228)"
     id="g10"><g
       transform="scale(0.1)"
       id="g12"><g
         id="g14"><g
           clip-path="url(#clipPath20)"
           id="g16"><path
             id="path22"
             style="fill:#000000;fill-opacity:1;fill-rule:nonzero;stroke:none"
             d="M 2224.88,1702 H 712.66 c -33.129,0 -60,-26.87 -60,-60 V 1180.09 H 60 c -33.1211,0 -60,-26.84 -60,-60 L 0,321.691 c 0,-33.132 26.8789,-60 60,-60 H 287.969 V 70.0117 c 0,-22.3515 12.383,-42.8125 32.152,-53.1719 8.789,-4.5703 18.32,-6.8281 27.848,-6.8281 11.992,0 23.941,3.5899 34.179,10.6602 L 729.801,261.691 h 482.349 c 33.16,0 60,26.868 60,60 v 195.778 h 65.86 L 1806.72,192.59 c 10.23,-7.11 22.19,-10.711 34.18,-10.711 9.53,0 19.06,2.269 27.81,6.84 19.81,10.351 32.19,30.859 32.19,53.16 v 275.59 h 323.94 c 33.17,0 60,26.871 60,60 V 1642 c 0.04,33.13 -26.83,60 -59.96,60 z M 1152.15,381.691 H 711.051 c -12.18,0 -24.141,-3.711 -34.172,-10.671 L 407.969,184.621 v 137.07 c 0,33.161 -26.879,60 -60,60 H 120 V 1060.09 H 1152.15 Z M 2164.88,637.469 H 1840.9 c -33.13,0 -60,-26.84 -60,-60 V 356.488 l -389.92,270.313 c -10.04,6.961 -21.96,10.668 -34.18,10.668 h -84.65 v 482.621 c 0,33.16 -26.84,60 -60,60 H 772.66 V 1582 h 1392.22 z" /></g></g></g></g></svg>