<?xml version="1.0" encoding="UTF-8" standalone="no"?>
<svg
   xmlns:dc="http://purl.org/dc/elements/1.1/"
   xmlns:cc="http://creativecommons.org/ns#"
   xmlns:rdf="http://www.w3.org/1999/02/22-rdf-syntax-ns#"
   xmlns:svg="http://www.w3.org/2000/svg"
   xmlns="http://www.w3.org/2000/svg"
   viewBox="0 0 252 220"
   height="220"
   width="252"
   xml:space="preserve"
   id="svg2"
   version="1.1"><metadata
     id="metadata8"><rdf:RDF><cc:Work
         rdf:about=""><dc:format>image/svg+xml</dc:format><dc:type
           rdf:resource="http://purl.org/dc/dcmitype/StillImage" /></cc:Work></rdf:RDF></metadata><defs
     id="defs6"><clipPath
       id="clipPath20"
       clipPathUnits="userSpaceOnUse"><path
         id="path18"
         d="M 0,7.69922 H 1890 V 1647.6992 H 0 Z" /></clipPath></defs><g
     transform="matrix(1.3333333,0,0,-1.3333333,0,220)"
     id="g10"><g
       transform="scale(0.1)"
       id="g12"><g
         id="g14"><g
           clip-path="url(#clipPath20)"
           id="g16"><path
             id="path22"
             style="fill:#000000;fill-opacity:1;fill-rule:nonzero;stroke:none"
             d="m 1696.21,1093.91 -31.64,-0.04 c -87.27,323.75 -384.34,553.83 -724.371,553.83 -338.008,0 -634.769,-230.16 -723.519,-553.91 l -31.91,0.04 C 82.8906,1093.83 0,1010.94 0,909.059 V 701.52 C 0,599.648 82.8906,516.762 184.77,516.762 h 23 C 237.34,284.059 436.602,103.59 677.23,103.59 h 44.098 C 744.73,48.6289 799.301,10 862.699,10 h 155.621 c 84.69,0 153.59,68.9102 153.59,153.559 0,84.679 -68.9,153.589 -153.59,153.589 H 862.699 c -63.398,0 -117.929,-38.628 -141.328,-93.558 H 677.23 c -194.808,0 -353.25,158.441 -353.25,353.172 v 450.308 c 62.071,290.39 320.282,500.63 616.219,500.63 297.891,0 556.401,-210.16 616.871,-500.39 V 576.84 c 0,-33.168 26.84,-60 60,-60 h 79.18 c 101.87,0 184.77,82.851 184.77,184.762 v 207.5 c 0,101.918 -82.9,184.808 -184.81,184.808 z M 862.699,197.148 h 155.621 c 18.52,0 33.59,-15.078 33.59,-33.589 0,-18.52 -15.07,-33.559 -33.59,-33.559 H 862.699 c -18.519,0 -33.558,15.039 -33.558,33.559 0,18.511 15.039,33.589 33.558,33.589 z M 120,701.52 v 207.539 c 0,35.711 29.059,64.769 64.73,64.769 h 19.25 V 636.801 H 184.77 C 149.059,636.762 120,665.82 120,701.52 Z m 1641.02,0.082 c 0,-35.704 -29.03,-64.762 -64.77,-64.762 h -19.18 v 337.031 l 19.18,0.039 c 35.74,0 64.77,-29.07 64.77,-64.808 z" /></g></g></g></g></svg>